<svg width="24" height="24" viewBox="0 0 24 24" fill="none" xmlns="http://www.w3.org/2000/svg">
<path d="M6.42827 21.5C5.88942 21.5 5.43333 21.3158 5.06 20.9474C4.68667 20.5789 4.5 20.1289 4.5 19.5971V7.61342C4.5 7.08167 4.68667 6.63158 5.06 6.26316C5.43333 5.89474 5.88942 5.71053 6.42827 5.71053H8.5V5.44737C8.5 4.35702 8.8904 3.42649 9.6712 2.65579C10.4522 1.88526 11.3951 1.5 12.5 1.5C13.6049 1.5 14.5478 1.88526 15.3288 2.65579C16.1096 3.42649 16.5 4.35702 16.5 5.44737V5.71053H18.5717C19.1106 5.71053 19.5667 5.89474 19.94 6.26316C20.3133 6.63158 20.5 7.08167 20.5 7.61342V19.5971C20.5 20.1289 20.3133 20.5789 19.94 20.9474C19.5667 21.3158 19.1106 21.5 18.5717 21.5H6.42827ZM6.42827 19.9211H18.5717C18.6539 19.9211 18.7291 19.8873 18.7973 19.8197C18.8658 19.7524 18.9 19.6782 18.9 19.5971V7.61342C18.9 7.53237 18.8658 7.45816 18.7973 7.39079C18.7291 7.32325 18.6539 7.28947 18.5717 7.28947H16.5V9.6579C16.5 9.88193 16.4234 10.0695 16.2701 10.2205C16.1171 10.3718 15.927 10.4474 15.7 10.4474C15.473 10.4474 15.2829 10.3718 15.1299 10.2205C14.9766 10.0695 14.9 9.88193 14.9 9.6579V7.28947H10.1V9.6579C10.1 9.88193 10.0234 10.0695 9.87013 10.2205C9.71707 10.3718 9.52702 10.4474 9.3 10.4474C9.07298 10.4474 8.88293 10.3718 8.72987 10.2205C8.57662 10.0695 8.5 9.88193 8.5 9.6579V7.28947H6.42827C6.34613 7.28947 6.27093 7.32325 6.20267 7.39079C6.13422 7.45816 6.1 7.53237 6.1 7.61342V19.5971C6.1 19.6782 6.13422 19.7524 6.20267 19.8197C6.27093 19.8873 6.34613 19.9211 6.42827 19.9211ZM10.1 5.71053H14.9V5.44737C14.9 4.78754 14.6672 4.22781 14.2016 3.76816C13.736 3.30868 13.1688 3.07895 12.5 3.07895C11.8312 3.07895 11.264 3.30868 10.7984 3.76816C10.3328 4.22781 10.1 4.78754 10.1 5.44737V5.71053Z" fill="#9856EF"/>
</svg>
