<svg width="24" height="24" viewBox="0 0 24 24" fill="none" xmlns="http://www.w3.org/2000/svg">
<path d="M11.4884 17.4108C11.7889 17.4108 12.0428 17.3071 12.25 17.0997C12.4572 16.8922 12.5608 16.6381 12.5608 16.3374C12.5608 16.0368 12.457 15.783 12.2495 15.5758C12.0419 15.3688 11.7879 15.2653 11.4874 15.2653C11.1868 15.2653 10.933 15.369 10.7258 15.5766C10.5186 15.7841 10.415 16.0382 10.415 16.3387C10.415 16.6392 10.5188 16.8931 10.7263 17.1003C10.9339 17.3073 11.1879 17.4108 11.4884 17.4108ZM11.5018 21.5C10.1187 21.5 8.8186 21.2375 7.60158 20.7126C6.38456 20.1877 5.32596 19.4754 4.42579 18.5755C3.52561 17.6757 2.81289 16.6175 2.28763 15.4011C1.76254 14.1846 1.5 12.8848 1.5 11.5018C1.5 10.1187 1.76246 8.8186 2.28737 7.60158C2.81228 6.38456 3.52465 5.32596 4.42447 4.42579C5.3243 3.52561 6.38246 2.81289 7.59895 2.28763C8.81544 1.76254 10.1152 1.5 11.4982 1.5C12.8813 1.5 14.1814 1.76246 15.3984 2.28737C16.6154 2.81228 17.674 3.52465 18.5742 4.42447C19.4744 5.3243 20.1871 6.38246 20.7124 7.59895C21.2375 8.81544 21.5 10.1152 21.5 11.4982C21.5 12.8813 21.2375 14.1814 20.7126 15.3984C20.1877 16.6154 19.4754 17.674 18.5755 18.5742C17.6757 19.4744 16.6175 20.1871 15.4011 20.7124C14.1846 21.2375 12.8848 21.5 11.5018 21.5ZM11.5 19.9211C13.8509 19.9211 15.8421 19.1053 17.4737 17.4737C19.1053 15.8421 19.9211 13.8509 19.9211 11.5C19.9211 9.14912 19.1053 7.15789 17.4737 5.52632C15.8421 3.89474 13.8509 3.07895 11.5 3.07895C9.14912 3.07895 7.15789 3.89474 5.52632 5.52632C3.89474 7.15789 3.07895 9.14912 3.07895 11.5C3.07895 13.8509 3.89474 15.8421 5.52632 17.4737C7.15789 19.1053 9.14912 19.9211 11.5 19.9211ZM11.5853 6.99395C12.0709 6.99395 12.4911 7.14684 12.8461 7.45263C13.2011 7.75842 13.3787 8.14061 13.3787 8.59921C13.3787 8.98518 13.2653 9.33061 13.0384 9.63553C12.8118 9.94061 12.5526 10.2247 12.2611 10.4879C11.8789 10.8268 11.5425 11.1997 11.2518 11.6066C10.9611 12.0132 10.8057 12.4662 10.7855 12.9655C10.7787 13.1573 10.8461 13.3179 10.9879 13.4474C11.1296 13.5768 11.2949 13.6416 11.4837 13.6416C11.6861 13.6416 11.8575 13.5741 11.9979 13.4392C12.1382 13.3043 12.228 13.139 12.2671 12.9434C12.3373 12.5817 12.4868 12.2595 12.7155 11.9768C12.9443 11.694 13.1921 11.4252 13.4589 11.1703C13.8426 10.7962 14.1775 10.3885 14.4634 9.94711C14.7496 9.50553 14.8926 9.01307 14.8926 8.46974C14.8926 7.6357 14.564 6.95044 13.9068 6.41395C13.2497 5.87763 12.4825 5.60947 11.6053 5.60947C10.9791 5.60947 10.3887 5.74807 9.83395 6.02526C9.27939 6.30263 8.84754 6.70719 8.53842 7.23895C8.44263 7.40228 8.41193 7.57412 8.44632 7.75447C8.48053 7.935 8.57307 8.07202 8.72395 8.16553C8.91605 8.27237 9.11333 8.3029 9.31579 8.25711C9.51825 8.21114 9.69026 8.09579 9.83184 7.91105C10.0452 7.63439 10.3033 7.41237 10.6063 7.245C10.9093 7.07763 11.2356 6.99395 11.5853 6.99395Z" fill="#9856EF"/>
</svg>
